User Type,Username,Date,Text
,sskain,2012-03-16T14:17Z,".cue:

REM GENRE Punk Rock
REM DATE 1979
PERFORMER ""The Stranglers""
TITLE ""The Raven""
FILE ""The Stranglers - The Raven side 1.flac"" WAVE
TRACK 01 AUDIO
TITLE ""Longships""
INDEX 01 00:00:00
TRACK 02 AUDIO
TITLE ""The Raven""
INDEX 01 01:12:00
TRACK 03 AUDIO
TITLE ""Dead Loss Angeles""
INDEX 01 06:24:00
TRACK 04 AUDIO
TITLE "" Ice""
INDEX 01 08:49:00
TRACK 05 AUDIO
TITLE ""Baroque Bordello""
INDEX 01 12:14:00
TRACK 06 AUDIO
TITLE ""Nuclear Device""
INDEX 01 16:04:00
FILE ""The Stranglers - The Raven side 2.flac"" WAVE
TRACK 07 AUDIO
TITLE ""Shah Shah A Go Go""
INDEX 01 00:00:00
TRACK 08 AUDIO
TITLE ""Don't Bring Harry""
INDEX 01 04:53:00
TRACK 09 AUDIO
TITLE ""Duchess""
INDEX 01 09:04:00
TRACK 10 AUDIO
TITLE "" Meninblack""
INDEX 01 11:35:00
TRACK 11 AUDIO
TITLE ""Genetix""
INDEX 01 16:26:00"
